<?xml version="1.0" encoding="UTF-8" standalone="no"?>
<svg
   xmlns:dc="http://purl.org/dc/elements/1.1/"
   xmlns:cc="http://creativecommons.org/ns#"
   xmlns:rdf="http://www.w3.org/1999/02/22-rdf-syntax-ns#"
   xmlns:svg="http://www.w3.org/2000/svg"
   xmlns="http://www.w3.org/2000/svg"
   id="svg14"
   version="1.1"
   viewBox="0 0 3435 684"
   height="684"
   width="3435">
  <metadata
     id="metadata18">
    <rdf:RDF>
      <cc:Work
         rdf:about="">
        <dc:format>image/svg+xml</dc:format>
        <dc:type
           rdf:resource="http://purl.org/dc/dcmitype/StillImage" />
        <dc:title>Group 20 Copy 3</dc:title>
      </cc:Work>
    </rdf:RDF>
  </metadata>
  <!-- Generator: Sketch 49.2 (51160) - http://www.bohemiancoding.com/sketch -->
  <title
     id="title2">Group 20 Copy 3</title>
  <desc
     id="desc4">Created with Sketch.</desc>
  <defs
     id="defs6" />
  <rect
     y="0"
     x="0"
     height="684"
     width="3435"
     id="rect424"
     style="fill:#ffffff;fill-rule:evenodd;stroke:none;stroke-width:1.00339019" />
  <g
     style="fill:none;fill-rule:evenodd;stroke:none;stroke-width:1"
     transform="translate(0.28368044,0.12273044)"
     id="Page-1">
    <g
       id="Group-20-Copy-3">
      <path
         style="fill:#000000"
         id="Vertcoin"
         d="m 828.69221,117.69545 h 103.79003 l 111.72696,303.9345 111.7269,-303.9345 h 101.3479 l -172.7799,434.6325 h -83.032 z m 668.83209,240.435 c -2.8491,-20.9611 -10.1754,-37.91468 -21.979,-50.86125 -11.8037,-12.94656 -27.4738,-19.41975 -47.0108,-19.41975 -19.5371,0 -35.3089,6.37044 -47.3161,19.11151 -12.0071,12.74106 -19.8422,29.79739 -23.5054,51.16949 z m -59.8319,198.51301 c -24.4213,0 -47.1124,-4.10996 -68.074,-12.33001 -20.9616,-8.22004 -39.0738,-19.93342 -54.3372,-35.1405 -15.2633,-15.20707 -27.1685,-33.18814 -35.7159,-53.94375 -8.5475,-20.7556 -12.8212,-43.87412 -12.8212,-69.35625 v -1.233 c 0,-23.42711 3.9684,-45.62089 11.9054,-66.582 7.9369,-20.9611 19.0281,-39.25042 33.2738,-54.8685 14.2458,-15.61807 31.2387,-27.94795 50.9792,-36.99 19.7406,-9.04204 41.6177,-13.563 65.632,-13.563 27.2704,0 50.8774,4.93196 70.8214,14.796 19.9441,9.86405 36.53,23.11867 49.7582,39.76425 13.2282,16.64559 22.9966,35.7569 29.3054,57.3345 6.3088,21.57761 9.4632,44.07964 9.4632,67.50675 0,3.69902 -0.1017,7.60348 -0.3052,11.71351 -0.2036,4.11001 -0.5088,8.42547 -0.9158,12.94649 h -227.7276 c 4.4772,21.37211 13.7369,37.5037 27.7791,48.39525 14.0423,10.89156 31.4422,16.33725 52.2003,16.33725 15.4668,0 29.3053,-2.67147 41.516,-8.0145 12.2107,-5.34302 24.8281,-13.97394 37.8528,-25.89299 l 53.1161,47.47049 c -15.4668,19.3171 -34.1895,34.4212 -56.1687,45.31275 -21.9792,10.89156 -47.8247,16.33726 -77.5373,16.33726 z m 219.1802,-337.84201 h 92.8005 v 66.58201 c 9.3615,-22.60512 22.1825,-40.68894 38.4633,-54.25201 16.2809,-13.56306 38.2598,-19.728 65.9372,-18.495 v 98.02351 h -4.8842 c -30.9337,0 -55.2529,9.4529 -72.9583,28.35899 -17.7054,18.9061 -26.558,48.29231 -26.558,88.1595 v 122.067 h -92.8005 z m 396.542,335.9925 c -14.2457,0 -27.1685,-1.54123 -38.7686,-4.62375 -11.6001,-3.08251 -21.572,-8.52821 -29.916,-16.33725 -8.3439,-7.80903 -14.8561,-17.98118 -19.5369,-30.51674 -4.6807,-12.53557 -7.0211,-28.46166 -7.0211,-47.77875 v -156.591 h -39.0739 v -80.14501 h 39.0739 v -84.4605 h 92.8005 v 84.4605 h 76.9268 v 80.14501 h -76.9268 v 141.17849 c 0,21.37211 9.9719,32.058 29.916,32.058 16.2808,0 31.5439,-3.90446 45.7897,-11.7135 v 75.213 c -9.7685,5.75403 -20.5544,10.37774 -32.3581,13.87126 -11.8036,3.49351 -25.4386,5.24024 -40.9055,5.24024 z m 299.9138,1.84951 c -24.4213,0 -47.1124,-4.52096 -68.074,-13.563 -20.9617,-9.04205 -38.9721,-21.26918 -54.0319,-36.68176 -15.0598,-15.41257 -26.8633,-33.49639 -35.4107,-54.252 -8.5475,-20.7556 -12.8211,-42.84663 -12.8211,-66.27375 v -1.233 c 0,-23.42711 4.2736,-45.62089 12.8211,-66.582 8.5474,-20.9611 20.3509,-39.25042 35.4107,-54.8685 15.0598,-15.61807 33.0702,-27.94795 54.0319,-36.99 20.9616,-9.04204 44.0597,-13.563 69.2951,-13.563 30.9336,0 56.5756,4.93196 76.9267,14.796 20.3511,9.86405 38.2598,23.42692 53.7266,40.68901 l -56.7792,61.64999 c -10.5826,-11.09705 -21.4703,-19.93346 -32.6634,-26.5095 -11.1931,-6.57603 -25.1334,-9.86399 -41.8212,-9.86399 -11.8037,0 -22.4878,2.36322 -32.0529,7.08974 -9.565,4.72653 -17.9088,11.19971 -25.0317,19.41976 -7.1228,8.22004 -12.6176,17.77569 -16.4843,28.66724 -3.8667,10.89156 -5.8,22.50219 -5.8,34.83225 v 1.233 c 0,12.74107 1.9333,24.65995 5.8,35.757 3.8667,11.09706 9.4632,20.75546 16.7896,28.9755 7.3264,8.22005 16.0772,14.69323 26.2528,19.41976 10.1755,4.72652 21.572,7.08974 34.1896,7.08974 15.4668,0 29.0001,-3.18521 40.6003,-9.55574 11.6001,-6.37054 23.0983,-14.8987 34.4949,-25.58476 l 54.3371,55.485 c -15.8738,17.67309 -33.986,32.1607 -54.3371,43.46325 -20.3511,11.30256 -46.8071,16.95376 -79.3689,16.95376 z m 353.855,-82.30275 c 13.4318,0 25.3369,-2.36323 35.716,-7.08976 10.3791,-4.72652 19.2317,-11.1997 26.558,-19.41975 7.3264,-8.22004 12.9229,-17.77569 16.7896,-28.66725 3.8667,-10.89155 5.8,-22.50218 5.8,-34.83225 v -1.233 c 0,-12.33006 -2.035,-23.94069 -6.1052,-34.83225 -4.0703,-10.89155 -9.972,-20.54995 -17.7054,-28.9755 -7.7334,-8.42554 -16.8913,-15.10422 -27.4738,-20.03625 -10.5826,-4.93202 -22.1826,-7.398 -34.8002,-7.398 -13.4317,0 -25.337,2.36323 -35.716,7.08976 -10.3791,4.72652 -19.2317,11.1997 -26.558,19.41974 -7.3264,8.22005 -12.9229,17.7757 -16.7896,28.66725 -3.8667,10.89156 -5.8,22.50219 -5.8,34.83225 v 1.233 c 0,12.33007 2.035,23.9407 6.1052,34.83225 4.0703,10.89156 9.972,20.54996 17.7054,28.9755 7.7334,8.42555 16.7895,15.10423 27.1686,20.03625 10.379,4.93203 22.0807,7.39801 35.1054,7.39801 z m -0.5995,81.24956 c -25.2354,0 -48.6388,-4.41821 -70.2109,-13.25475 -21.5722,-8.83655 -40.1932,-20.96093 -55.8635,-36.3735 -15.6703,-15.41258 -27.9826,-33.4964 -36.937,-54.252 -8.9545,-20.75561 -13.4317,-43.05213 -13.4317,-66.89025 v -1.233 c 0,-23.83812 4.4772,-46.13465 13.4317,-66.89025 8.9544,-20.75561 21.3684,-38.94218 37.2423,-54.56025 15.8738,-15.61808 34.5965,-27.94796 56.1687,-36.99 21.5721,-9.04205 45.1791,-13.563 70.8214,-13.563 25.2354,0 48.6388,4.4182 70.2109,13.25475 21.5722,8.83654 40.1932,20.96092 55.8635,36.3735 15.6703,15.41257 27.9826,33.49639 36.937,54.252 8.9545,20.7556 13.4317,43.05213 13.4317,66.89025 v 1.233 c 0,23.83812 -4.4772,46.13464 -13.4317,66.89025 -8.9544,20.7556 -21.3684,38.94217 -37.2423,54.56025 -15.8738,15.61807 -34.5965,27.94795 -56.1687,36.99 -21.5721,9.04204 -45.1791,13.563 -70.8214,13.563 z m 249.5493,-336.78882 h 92.8005 v 330.444 h -92.8005 z m -4.019,-119.600995 h 97.6848 v 83.227495 h -97.6848 z m 182.5484,119.600995 h 92.8005 v 46.85401 c 5.2913,-6.98704 11.0912,-13.66572 17.4001,-20.03626 6.3088,-6.37053 13.3298,-12.02172 21.0633,-16.95375 7.7334,-4.93202 16.2807,-8.83648 25.6422,-11.7135 9.3615,-2.87701 19.9439,-4.3155 31.7475,-4.3155 35.4109,0 62.7828,10.8914 82.1163,32.6745 19.3335,21.78311 29.0001,51.78581 29.0001,90.009 v 213.9255 h -92.8005 v -184.3335 c 0,-22.19411 -4.8841,-38.94219 -14.6527,-50.24474 -9.7685,-11.30256 -23.607,-16.95376 -41.516,-16.95376 -17.9089,0 -32.0527,5.6512 -42.4318,16.95376 -10.3791,11.30255 -15.5685,28.05063 -15.5685,50.24474 v 184.3335 h -92.8005 z" />
      <g
         id="Group-Copy-4">
        <path
           style="fill:#048657"
           id="Combined-Shape"
           d="m 576.03163,98.192779 c -1.96567,-1.888169 -3.95051,-3.739858 -5.95452,-5.555066 L 334.00088,422.94575 243.79603,306.70832 H 96.964995 l -41.265357,47.46362 h 76.772752 l 183.29496,239.25538 c 6.11648,5.81188 12.19432,8.71781 18.23353,8.71781 6.03921,0 11.79717,-2.90593 17.27387,-8.71781 L 641.09191,188.5336 c -1.67405,-3.47262 -3.40475,-6.9063 -5.19209,-10.30105 26.29005,48.60327 41.23303,104.36187 41.23303,163.64472 0,188.81361 -151.58135,341.87727 -338.56642,341.87727 C 151.58135,683.75454 0,530.69088 0,341.87727 0,153.06367 151.58135,0 338.56643,0 431.07741,0 514.92233,37.466646 576.0316,98.192757 Z" />
        <path
           style="fill:#ffffff"
           id="Path-2-Copy-6"
           d="M 55.699638,354.17194 96.964995,306.70832 H 243.79603 L 334.00088,422.94575 570.07711,92.637713 c 14.05881,12.734317 27.17415,27.263997 39.34604,43.589037 12.17189,16.32504 22.72814,33.76066 31.66876,52.30685 L 351.27475,593.42732 c -5.4767,5.81188 -11.23466,8.71781 -17.27387,8.71781 -6.03921,0 -12.11705,-2.90593 -18.23353,-8.71781 L 132.47239,354.17194 Z" />
      </g>
    </g>
  </g>
</svg>
