<?xml version="1.0" encoding="UTF-8" standalone="no"?>
<svg
   xmlns:dc="http://purl.org/dc/elements/1.1/"
   xmlns:cc="http://creativecommons.org/ns#"
   xmlns:rdf="http://www.w3.org/1999/02/22-rdf-syntax-ns#"
   xmlns:svg="http://www.w3.org/2000/svg"
   xmlns="http://www.w3.org/2000/svg"
   width="2607"
   height="2514.3982"
   viewBox="0 0 2607 2514.3982"
   version="1.1"
   id="svg15">
  <metadata
     id="metadata19">
    <rdf:RDF>
      <cc:Work
         rdf:about="">
        <dc:format>image/svg+xml</dc:format>
        <dc:type
           rdf:resource="http://purl.org/dc/dcmitype/StillImage" />
        <dc:title>Group 35</dc:title>
      </cc:Work>
    </rdf:RDF>
  </metadata>
  <!-- Generator: Sketch 49.2 (51160) - http://www.bohemiancoding.com/sketch -->
  <title
     id="title2">Group 35</title>
  <desc
     id="desc4">Created with Sketch.</desc>
  <defs
     id="defs6" />
  <rect
     style="fill:#000000;fill-rule:evenodd;stroke:none;stroke-width:2.783741"
     id="rect3743"
     width="2607"
     height="2507"
     x="0"
     y="0" />
  <g
     id="Page-1"
     transform="translate(0.56739999,7.7546)"
     style="fill:none;fill-rule:evenodd;stroke:none;stroke-width:1">
    <g
       id="Group-35">
      <g
         id="Group-34">
        <path
           d="M 0.69220826,2067.6955 H 104.48224 L 216.20917,2371.63 327.93609,2067.6955 H 429.284 L 256.50412,2502.3279 H 173.47209 Z M 669.52433,2308.1305 c -2.84916,-20.9611 -10.17544,-37.9147 -21.97907,-50.8613 -11.80363,-12.9466 -27.47374,-19.4197 -47.01078,-19.4197 -19.53705,0 -35.3089,6.3704 -47.31605,19.1115 -12.00714,12.741 -19.84219,29.7974 -23.50539,51.1695 z m -59.83191,198.513 c -24.4213,0 -47.11243,-4.11 -68.07405,-12.33 -20.96162,-8.2201 -39.07382,-19.9335 -54.33714,-35.1405 -15.26331,-15.2071 -27.16852,-33.1882 -35.71598,-53.9438 -8.54746,-20.7556 -12.82112,-43.8741 -12.82112,-69.3562 v -1.233 c 0,-23.4272 3.9684,-45.6209 11.90533,-66.5821 7.93692,-20.961 19.0281,-39.2504 33.27386,-54.8685 14.24576,-15.618 31.23867,-27.9479 50.97923,-36.9899 19.74055,-9.0421 41.61764,-13.563 65.63193,-13.563 27.27046,0 50.87737,4.9319 70.82144,14.7959 19.94406,9.8641 36.52995,23.1187 49.75816,39.7643 13.22821,16.6456 22.99658,35.7569 29.30542,57.3345 6.30884,21.5776 9.46321,44.0796 9.46321,67.5068 0,3.699 -0.10175,7.6034 -0.30526,11.7135 -0.20352,4.11 -0.50878,8.4254 -0.9158,12.9465 H 530.9341 c 4.47724,21.3721 13.73685,37.5037 27.7791,48.3952 14.04225,10.8916 31.44217,16.3372 52.20028,16.3372 15.46683,0 29.30536,-2.6714 41.51602,-8.0144 12.21065,-5.3431 24.82814,-13.974 37.85283,-25.893 l 53.11608,47.4705 c -15.46683,19.3171 -34.18955,34.4212 -56.16872,45.3127 -21.97918,10.8916 -47.82468,16.3373 -77.53727,16.3373 z m 219.18014,-337.842 h 92.8005 v 66.5819 c 9.3615,-22.6051 22.1825,-40.6889 38.46337,-54.252 16.28087,-13.563 38.25972,-19.728 65.93717,-18.4949 v 98.0235 h -4.8842 c -30.93367,0 -55.25285,9.4529 -72.9583,28.359 -17.70545,18.906 -26.55804,48.2923 -26.55804,88.1594 v 122.067 h -92.8005 z m 396.54204,335.9925 c -14.2457,0 -27.1685,-1.5413 -38.7686,-4.6238 -11.6001,-3.0825 -21.572,-8.5282 -29.916,-16.3372 -8.3439,-7.8091 -14.8561,-17.9812 -19.5369,-30.5168 -4.6807,-12.5356 -7.0211,-28.4616 -7.0211,-47.7788 v -156.5909 h -39.0739 v -80.145 h 39.0739 v -84.4606 h 92.8005 v 84.4606 h 76.9268 v 80.145 h -76.9268 v 141.1785 c 0,21.3721 9.9719,32.0579 29.916,32.0579 16.2808,0 31.5439,-3.9044 45.7897,-11.7134 v 75.2129 c -9.7685,5.7541 -20.5544,10.3778 -32.3581,13.8713 -11.8036,3.4935 -25.4386,5.2403 -40.9055,5.2403 z m 299.9138,1.8495 c -24.4213,0 -47.1124,-4.521 -68.074,-13.563 -20.9617,-9.0421 -38.9721,-21.2692 -54.0319,-36.6818 -15.0598,-15.4126 -26.8633,-33.4964 -35.4107,-54.252 -8.5475,-20.7556 -12.8211,-42.8466 -12.8211,-66.2737 v -1.233 c 0,-23.4272 4.2736,-45.6209 12.8211,-66.5821 8.5474,-20.961 20.3509,-39.2504 35.4107,-54.8685 15.0598,-15.618 33.0702,-27.9479 54.0319,-36.9899 20.9616,-9.0421 44.0597,-13.563 69.2951,-13.563 30.9336,0 56.5756,4.9319 76.9267,14.7959 20.3511,9.8641 38.2598,23.427 53.7266,40.6891 l -56.7792,61.65 c -10.5826,-11.0971 -21.4703,-19.9335 -32.6634,-26.5095 -11.1931,-6.5761 -25.1334,-9.864 -41.8212,-9.864 -11.8037,0 -22.4878,2.3632 -32.0529,7.0897 -9.565,4.7265 -17.9088,11.1997 -25.0317,19.4198 -7.1228,8.22 -12.6176,17.7756 -16.4843,28.6672 -3.8667,10.8916 -5.8,22.5022 -5.8,34.8323 v 1.233 c 0,12.741 1.9333,24.6599 5.8,35.7569 3.8667,11.0971 9.4632,20.7555 16.7896,28.9755 7.3264,8.2201 16.0772,14.6933 26.2528,19.4198 10.1755,4.7265 21.572,7.0898 34.1896,7.0898 15.4669,0 29.0001,-3.1853 40.6003,-9.5558 11.6001,-6.3705 23.0983,-14.8987 34.4949,-25.5847 l 54.3371,55.485 c -15.8738,17.673 -33.986,32.1607 -54.3371,43.4632 -20.3511,11.3026 -46.8071,16.9538 -79.3689,16.9538 z m 353.855,-82.3028 c 13.4318,0 25.337,-2.3632 35.716,-7.0897 10.3791,-4.7266 19.2317,-11.1997 26.5581,-19.4198 7.3263,-8.22 12.9228,-17.7757 16.7895,-28.6672 3.8667,-10.8916 5.8,-22.5022 5.8,-34.8323 v -1.233 c 0,-12.3301 -2.035,-23.9407 -6.1052,-34.8322 -4.0703,-10.8916 -9.972,-20.55 -17.7054,-28.9755 -7.7334,-8.4256 -16.8913,-15.1043 -27.4738,-20.0363 -10.5826,-4.932 -22.1826,-7.398 -34.8002,-7.398 -13.4317,0 -25.337,2.3632 -35.716,7.0898 -10.3791,4.7265 -19.2317,11.1997 -26.558,19.4197 -7.3264,8.22 -12.9229,17.7757 -16.7896,28.6673 -3.8667,10.8915 -5.8,22.5021 -5.8,34.8322 v 1.233 c 0,12.3301 2.035,23.9407 6.1053,34.8323 4.0702,10.8915 9.9719,20.5499 17.7053,28.9755 7.7334,8.4255 16.7895,15.1042 27.1686,20.0362 10.379,4.932 22.0807,7.398 35.1054,7.398 z m -0.5995,81.2496 c -25.2354,0 -48.6388,-4.4182 -70.2109,-13.2548 -21.5722,-8.8365 -40.1932,-20.9609 -55.8635,-36.3735 -15.6703,-15.4126 -27.9826,-33.4964 -36.937,-54.252 -8.9545,-20.7556 -13.4317,-43.0521 -13.4317,-66.8902 v -1.233 c 0,-23.8381 4.4772,-46.1347 13.4317,-66.8903 8.9544,-20.7556 21.3684,-38.9421 37.2423,-54.5602 15.8738,-15.6181 34.5965,-27.948 56.1687,-36.99 21.5721,-9.0421 45.1791,-13.563 70.8214,-13.563 25.2354,0 48.6388,4.4182 70.2109,13.2547 21.5722,8.8366 40.1932,20.9609 55.8635,36.3735 15.6703,15.4126 27.9826,33.4964 36.937,54.252 8.9545,20.7556 13.4317,43.0521 13.4317,66.8903 v 1.233 c 0,23.8381 -4.4772,46.1346 -13.4317,66.8902 -8.9544,20.7556 -21.3684,38.9422 -37.2423,54.5603 -15.8738,15.6181 -34.5965,27.9479 -56.1687,36.99 -21.5721,9.042 -45.1791,13.563 -70.8214,13.563 z m 249.5493,-336.7888 h 92.8005 v 330.4439 h -92.8005 z m -4.019,-119.6011 h 97.6848 v 83.2275 h -97.6848 z m 182.5484,119.6011 h 92.8005 v 46.854 c 5.2913,-6.9871 11.0912,-13.6658 17.4001,-20.0363 6.3088,-6.3705 13.3298,-12.0217 21.0633,-16.9537 7.7334,-4.9321 16.2807,-8.8365 25.6422,-11.7135 9.3615,-2.8771 19.9439,-4.3155 31.7475,-4.3155 35.4109,0 62.7828,10.8914 82.1163,32.6745 19.3335,21.7831 29.0001,51.7858 29.0001,90.009 v 213.9254 h -92.8005 V 2314.912 c 0,-22.1942 -4.8841,-38.9422 -14.6527,-50.2448 -9.7685,-11.3025 -23.607,-16.9537 -41.516,-16.9537 -17.9089,0 -32.0527,5.6512 -42.4318,16.9537 -10.3791,11.3026 -15.5685,28.0506 -15.5685,50.2448 v 184.3334 h -92.8005 z"
           id="Vertcoin"
           style="fill:#ffffff" />
        <g
           id="Group-Copy-4"
           transform="translate(457)">
          <path
             d="m 1440.0791,245.48195 c -4.9142,-4.72042 -9.8763,-9.34965 -14.8863,-13.88767 L 835.00221,1057.3644 609.49007,766.7708 H 242.41249 l -103.1634,118.65905 h 191.9319 l 458.23739,598.13845 c 15.2912,14.5297 30.4858,21.7945 45.58383,21.7945 15.09802,0 29.49291,-7.2648 43.18467,-21.7945 L 1602.7298,471.33399 c -4.1852,-8.68154 -8.5119,-17.26574 -12.9803,-25.7526 65.7252,121.50816 103.0826,260.90466 103.0826,409.11179 0,472.03402 -378.9533,854.69322 -846.41603,854.69322 C 378.95338,1709.3864 0,1326.7272 0,854.69318 0,382.65917 378.95338,0 846.41607,0 1077.6935,0 1287.3058,93.666615 1440.079,245.48189 Z"
             id="Combined-Shape"
             style="fill:#048657" />
          <path
             d="M 139.24909,885.42985 242.41249,766.7708 h 367.07758 l 225.51214,290.5936 590.19059,-825.77012 c 35.147,31.83579 67.9354,68.15998 98.3651,108.9726 30.4297,40.81261 56.8203,84.40165 79.1719,130.76711 L 878.18688,1483.5683 c -13.69176,14.5297 -28.08665,21.7945 -43.18467,21.7945 -15.09803,0 -30.29263,-7.2648 -45.58383,-21.7945 L 331.18099,885.42985 Z"
             id="Path-2-Copy-6"
             style="fill:#ffffff" />
        </g>
      </g>
    </g>
  </g>
</svg>
